<svg xmlns="http://www.w3.org/2000/svg" viewBox="0 0 640 160" fill="none" role="img" aria-label="Himalayan Sound">
  <defs>
    <linearGradient id="hs-gold" x1="8" y1="8" x2="152" y2="152" gradientUnits="userSpaceOnUse">
      <stop stop-color="#f0d48a"/>
      <stop offset="0.45" stop-color="#d4b27a"/>
      <stop offset="1" stop-color="#9a6f1e"/>
    </linearGradient>
    <linearGradient id="hs-bowl" x1="36" y1="68" x2="124" y2="118" gradientUnits="userSpaceOnUse">
      <stop stop-color="#fff8ec"/>
      <stop offset="1" stop-color="#e8d4a8"/>
    </linearGradient>
  </defs>
  <g transform="translate(8 8)">
    <circle cx="72" cy="72" r="72" fill="url(#hs-gold)"/>
    <ellipse cx="72" cy="98" rx="34" ry="7" fill="#3d2910" fill-opacity="0.16"/>
    <path d="M30 88c2-24 18-40 42-40s40 16 42 40c-8 5-76 5-84 0Z" fill="url(#hs-bowl)"/>
    <path d="M40 84c2-16 14-26 32-26s30 10 32 26" stroke="#c9a24f" stroke-width="2.5" stroke-linecap="round"/>
    <ellipse cx="72" cy="56" rx="18" ry="3" fill="#fffdf6" fill-opacity="0.85"/>
    <path d="M34 48c10-10 22-15 38-15s28 5 38 15" stroke="#fff8ec" stroke-opacity="0.5" stroke-width="3" stroke-linecap="round"/>
    <path d="M26 36c14-12 28-18 46-18s32 6 46 18" stroke="#fff8ec" stroke-opacity="0.3" stroke-width="2.5" stroke-linecap="round"/>
  </g>
  <text x="168" y="78" font-family="Georgia, 'Times New Roman', serif" font-size="44" font-weight="700" fill="#1f1c19">Himalayan</text>
  <text x="168" y="118" font-family="Georgia, 'Times New Roman', serif" font-size="44" font-weight="700" fill="#9a6f1e">Sound</text>
</svg>
